<?xml version="1.0" standalone="no"?><!DOCTYPE svg PUBLIC "-//W3C//DTD SVG 1.1//EN" "http://www.w3.org/Graphics/SVG/1.1/DTD/svg11.dtd"><svg t="1561444535476" class="icon" viewBox="0 0 1024 1024" version="1.1" xmlns="http://www.w3.org/2000/svg" p-id="1067" xmlns:xlink="http://www.w3.org/1999/xlink" width="200" height="200"><defs><style type="text/css"></style></defs><path d="M102.4 0h819.2a102.4 102.4 0 0 1 102.4 102.4v716.8H0V102.4A102.4 102.4 0 0 1 102.4 0z" fill="#DBED94" p-id="1068"></path><path d="M522.24 0h30.72L0 624.64v-30.72z" fill="#E5F2B1" p-id="1069"></path><path d="M1024 204.8s-435.46624-78.70464-450.56 307.2c0 0-3.13344 386.9184 450.56 307.2V204.8z" fill="#FFBE50" p-id="1070"></path><path d="M0 757.76h1024v163.84a102.4 102.4 0 0 1-102.4 102.4H102.4A102.4 102.4 0 0 1 0 921.6V757.76z" fill="#BAEBF1" p-id="1071"></path><path d="M0 542.72s319.77472-124.69248 583.68 174.08a557.4144 557.4144 0 0 1 440.32-61.44v102.4H0V542.72z" fill="#BAEBF1" p-id="1072"></path><path d="M286.72 0h194.56L0 542.72V317.44z" fill="#E5F2B1" p-id="1073"></path></svg>