<?xml version="1.0" standalone="no"?><!DOCTYPE svg PUBLIC "-//W3C//DTD SVG 1.1//EN" "http://www.w3.org/Graphics/SVG/1.1/DTD/svg11.dtd"><svg t="1564672641018" class="icon" viewBox="0 0 1470 1024" version="1.1" xmlns="http://www.w3.org/2000/svg" p-id="896" xmlns:xlink="http://www.w3.org/1999/xlink" width="287.109375" height="200"><defs><style type="text/css"></style></defs><path d="M495.849664 669.72349c30.926174-34.018792 154.630872-216.139597 388.295302-236.413423V330.910067l158.410739 171.468456-157.379866 173.530202-0.687248-107.554363c-0.343624 0-333.65906 16.150336-388.638927 101.369128z" fill="#59CE9B" p-id="897"></path><path d="M764.907383 465.954362c-6.872483 0-13.401342-4.12349-16.150336-10.995973-3.436242-8.934228 1.030872-18.899329 9.965101-21.991946 31.957047-12.026846 63.57047-20.273826 94.15302-24.397315V303.420134c0-9.621477 7.559732-17.181208 17.181208-17.181208s17.181208 7.559732 17.181208 17.181208V439.838926l-15.806712 1.374497c-32.300671 2.748993-65.975839 10.652349-100.681879 23.710067-1.718121 0.687248-3.779866 1.030872-5.84161 1.030872zM686.561074 503.065772c-5.841611 0-11.683221-3.092617-15.119463-8.590604-4.810738-8.24698-1.718121-18.899329 6.528859-23.366443 14.088591-7.903356 28.177181-15.119463 41.922147-21.648322 8.590604-4.12349 18.899329-0.343624 23.022819 8.24698 4.12349 8.590604 0.343624 18.899329-8.24698 23.022818-13.057718 6.185235-26.45906 13.057718-39.860402 20.61745-2.405369 1.030872-5.497987 1.718121-8.24698 1.718121z" p-id="898"></path><path d="M425.063087 735.355705l-27.833557-19.930202c3.436242-5.497987 7.559732-10.652349 12.714094-15.463087 30.58255-36.424161 118.206711-133.669799 232.289933-207.205369 7.903356-5.154362 18.555705-2.748993 23.710067 5.154362s2.748993 18.555705-5.154362 23.710068c-56.010738 36.080537-106.179866 78.689933-145.35302 116.48859 126.110067-50.169128 306.169128-78.689933 353.589261-85.90604 5.841611-1.030872 11.683221 0.687248 16.150336 4.810738 4.467114 3.779866 6.872483 9.277852 7.216107 15.119463l0.687249 85.90604 139.855033-153.256375-175.248322-189.680537c-6.528859-6.872483-5.841611-17.868456 1.030873-24.397316 6.872483-6.528859 17.868456-5.841611 24.397315 1.030873l184.18255 199.302013c7.216107 7.903356 7.216107 19.586577 0 27.489933l-172.842953 188.993289c-5.841611 6.185235-14.432215 8.24698-22.33557 5.154362-7.903356-3.092617-13.057718-10.308725-13.057718-18.899329l-0.687249-105.492617c-137.10604 21.304698-355.994631 69.412081-420.595973 131.608053-8.24698 9.621477-12.37047 15.119463-12.714094 15.463088z m616.461745-220.950336z" p-id="899"></path></svg>