<?xml version="1.0" standalone="no"?><!DOCTYPE svg PUBLIC "-//W3C//DTD SVG 1.1//EN" "http://www.w3.org/Graphics/SVG/1.1/DTD/svg11.dtd"><svg t="1563702116671" class="icon" viewBox="0 0 1024 1024" version="1.1" xmlns="http://www.w3.org/2000/svg" p-id="1406" xmlns:xlink="http://www.w3.org/1999/xlink" width="200" height="200"><defs><style type="text/css"></style></defs><path d="M935.88 213.3v622.8a83.19 83.19 0 0 1-83.2 83.2h-622.8a126 126 0 0 1-126-126v-580a125.93 125.93 0 0 1 126-126h580a126 126 0 0 1 126 126z" fill="#FF6161" p-id="1407"></path><path d="M739 919.3H229.88a126 126 0 0 1-126-126v-432q12.42-0.49 25-0.5 15.06 0 29.93 0.72c294.38 14.2 534.29 236.25 576.08 522.61q2.54 17.43 4.11 35.17z" fill="#FFFFFF" opacity=".2" p-id="1408"></path><path d="M935.88 213.3v622.8a82.87 82.87 0 0 1-6.69 32.74 635.16 635.16 0 0 1-146.61 17.06q-24.06 0-47.69-1.77c-291-21.67-527.21-240-576.13-522.58A638.8 638.8 0 0 1 167 104.08a125.48 125.48 0 0 1 62.88-16.78h580a126 126 0 0 1 126 126z" fill="#FFFFFF" opacity=".14" p-id="1409"></path><path d="M653.49 543.65c6.93-6.93 26-23.47 26-25.65l0.5-197a52.15 52.15 0 0 0-52-52H324a52.15 52.15 0 0 0-52 52v363a52.15 52.15 0 0 0 52 52h201.66c0.12-18.81 0.83-37.94 0.83-62.31 0-2 13-14 31-32 30.02-30.06 60-62.04 96-98.04zM333 386a20.06 20.06 0 0 1 20-20h212a20.06 20.06 0 0 1 20 20 20.06 20.06 0 0 1-20 20H353a20.06 20.06 0 0 1-20-20z m161 208.6a18.41 18.41 0 0 1-18.35 18.4H356.06a18.41 18.41 0 0 1-18.36-18.4v-3.28A18.41 18.41 0 0 1 356.06 573h119.59A18.41 18.41 0 0 1 494 591.32z m55-105a18.41 18.41 0 0 1-18.35 18.4H355.06a18.41 18.41 0 0 1-18.36-18.4v-3.28A18.41 18.41 0 0 1 355.06 468h175.59A18.41 18.41 0 0 1 549 486.32zM766.36 567.92s6.92-19.14-13-39.06c-19.13-19.11-39.08-13-39.08-13l-26 26.06L740.33 594zM675.22 554.88v0.01l0.01-0.01h-0.01z" fill="#FFFFFF" p-id="1410"></path><path d="M760.34 722.8H611.56L727.31 607l-52.09-52.09L545 685.13V737.44h213.62a7.42 7.42 0 1 0 1.72-14.64z" fill="#FFFFFF" p-id="1411"></path></svg>