<?xml version="1.0" standalone="no"?><!DOCTYPE svg PUBLIC "-//W3C//DTD SVG 1.1//EN" "http://www.w3.org/Graphics/SVG/1.1/DTD/svg11.dtd"><svg t="1561445343936" class="icon" viewBox="0 0 1024 1024" version="1.1" xmlns="http://www.w3.org/2000/svg" p-id="1960" xmlns:xlink="http://www.w3.org/1999/xlink" width="200" height="200"><defs><style type="text/css"></style></defs><path d="M770.089796 909.061224H194.35102c-43.885714 0-79.412245-35.526531-79.412244-79.412244V253.910204c0-43.885714 35.526531-79.412245 79.412244-79.412245h387.134694c10.971429 0 19.853061 8.881633 19.853062 19.853061 0 10.971429-8.881633 19.853061-19.853062 19.853062H194.35102c-21.942857 0-39.706122 17.763265-39.706122 39.706122v575.738776c0 21.942857 17.763265 39.706122 39.706122 39.706122h575.738776c21.942857 0 39.706122-17.763265 39.706122-39.706122V442.514286c0-10.971429 8.881633-19.853061 19.853062-19.853062 10.971429 0 19.853061 8.881633 19.853061 19.853062v387.134694c0 43.885714-35.526531 79.412245-79.412245 79.412244z" fill="#7BD4EF" p-id="1961"></path><path d="M887.640816 136.359184c-27.167347-27.167347-70.008163-28.212245-95.608163-3.134694L532.897959 392.359184l-1.567347 1.567347-0.522449 0.522449-0.522449 0.522449c-14.628571 15.15102-26.644898 32.391837-35.52653 51.722449L464.979592 509.910204c-6.269388 13.583673-3.134694 29.257143 7.836735 40.75102 7.314286 7.314286 16.195918 10.971429 25.6 10.971429 5.22449 0 9.926531-1.044898 14.628571-3.134694l63.216326-29.779592c19.330612-8.881633 36.571429-20.897959 51.722449-35.52653l0.522449-0.522449 0.522449-0.522449 1.567347-1.567347 259.134694-259.134694c26.644898-25.6 25.077551-68.440816-2.089796-95.085714z m-326.530612 355.787755l-54.857143 25.6 25.6-54.857143c4.179592-9.404082 9.404082-17.763265 15.67347-25.6l39.706122 39.706122c-8.359184 5.746939-17.240816 10.971429-26.122449 15.151021z" fill="#16C4AF" p-id="1962"></path></svg>