<?xml version="1.0" standalone="no"?><!DOCTYPE svg PUBLIC "-//W3C//DTD SVG 1.1//EN" "http://www.w3.org/Graphics/SVG/1.1/DTD/svg11.dtd"><svg t="1563702258845" class="icon" viewBox="0 0 1024 1024" version="1.1" xmlns="http://www.w3.org/2000/svg" p-id="919" xmlns:xlink="http://www.w3.org/1999/xlink" width="200" height="200"><defs><style type="text/css"></style></defs><path d="M1018.667383 822.719527c0 108.871388-89.071899 197.943287-197.943287 197.943287h-617.551404C94.284102 1020.662814 5.160597 931.590915 5.160597 822.719527v-617.551404C5.160597 96.331138 94.284102 7.224835 203.15549 7.224835h617.551404c108.88859 0 197.960489 89.106303 197.960489 197.926086z m0 0" fill="#F23D9C" p-id="920"></path><path d="M780.867088 241.722349l-1.358957 1.100927a34.489988 34.489988 0 0 1 3.440397 0.997716z" fill="#F5C720" p-id="921"></path><path d="M771.853246 599.282892L516.386507 705.453568l-264.360166-109.869104A23.583927 23.583927 0 1 0 233.94705 639.139901l273.511625 113.619137a23.446311 23.446311 0 0 0 18.664158-0.25803l263.826905-109.645478a23.583927 23.583927 0 0 0-18.096492-43.572638z" fill="#FFFFFF" p-id="922"></path><path d="M771.853246 497.687945L516.386507 603.789813l-264.360166-109.800295A23.583927 23.583927 0 1 0 233.94705 537.544954l273.511625 113.619137a23.446311 23.446311 0 0 0 18.664158-0.25803l263.826905-109.645478a23.583927 23.583927 0 0 0-18.096492-43.572638z" fill="#FFFFFF" p-id="923"></path><path d="M233.94705 428.776777l273.511625 113.619138a23.497917 23.497917 0 0 0 18.59535-0.223626l263.895713-109.679882A23.635533 23.635533 0 0 0 804.020965 405.96694c0-0.292434-0.120414-0.550464-0.17202-0.825696s0 0 0-0.137615a23.429109 23.429109 0 0 0-13.916409-16.238678l-273.511625-113.670743a25.149308 25.149308 0 0 0-18.715764 0l-263.603279 109.525064a24.082785 24.082785 0 0 0-0.189222 44.157505z m273.150383-106.445907l212.530574 88.280607-203.2415 84.478968-212.49617-88.332214z" fill="#FFFFFF" p-id="924"></path><path d="M820.724096 7.224835h-617.551404C96.726784 7.224835 9.220266 92.357479 5.367021 197.822873v632.173095A197.306814 197.306814 0 0 0 62.426018 961.591184L959.561349 64.438651A197.238006 197.238006 0 0 0 820.724096 7.224835z" opacity=".1" p-id="925"></path></svg>